<svg xmlns="http://www.w3.org/2000/svg" viewBox="286 54 452 452">
  <style>
    path { fill: #ffffff; }
    @media (prefers-color-scheme: dark) {
      path { fill: #ffffff; }
    }
  </style>
  <path d="M556.971497,460.011322   C547.350464,466.951996 537.647461,473.089569 527.618896,478.735748   C517.740356,484.297516 507.997620,484.312469 498.225708,478.577545   C426.482635,436.473236 376.316803,377.232422 353.753571,296.213593   C346.503143,270.179169 342.598083,243.544617 340.841248,216.591278   C340.733002,214.930649 340.702087,213.257996 340.757080,211.594955   C340.961761,205.408981 343.726959,201.313599 348.782715,199.604660   C353.483398,198.015732 359.252045,199.584152 362.522003,204.270935   C377.772766,226.129791 392.868073,248.098053 407.873596,270.126221   C410.505127,273.989258 410.693481,278.368744 407.563324,282.223358   C404.328949,286.206360 400.051605,285.980042 395.701599,284.474976   C392.451294,283.350403 389.262329,282.048492 385.128326,280.476624   C387.701904,293.644836 391.023865,305.551117 397.678436,316.245392   C424.583893,359.484100 485.011169,362.885437 516.666687,323.068024   C518.298279,321.015717 519.761902,316.937500 522.834167,318.436981   C526.006958,319.985535 524.081665,323.785553 523.451477,326.597412   C516.488281,357.668671 487.874603,380.855957 456.025330,381.277649   C453.360687,381.312958 450.665253,381.061554 448.037109,381.380249   C442.791077,382.016449 440.530884,386.925232 443.424042,391.363495   C444.778625,393.441498 446.458374,395.345612 448.193512,397.131531   C464.036224,413.438049 481.312927,428.013153 500.353088,440.493896   C509.195892,446.290344 517.468811,445.996338 526.346436,440.158569   C573.177856,409.363007 607.991943,368.570862 629.788086,316.833038   C638.174194,296.927002 642.890686,275.985321 646.509460,254.811005   C650.128479,233.635086 652.106323,212.279922 651.700012,190.750000   C651.497620,180.022934 647.414856,175.135864 637.046509,173.350082   C617.439514,169.973099 598.551453,164.178848 580.200623,156.525253   C577.002136,155.191254 575.564514,153.826599 576.405945,149.873947   C577.815125,143.253601 575.784485,136.999008 572.271362,131.295197   C568.515137,125.196648 564.649109,119.165794 560.855530,113.090057   C560.001160,111.721725 558.789795,110.492546 558.727173,108.332497   C561.053101,108.160263 562.507690,109.664520 564.075500,110.607094   C594.682922,129.007919 627.948059,139.459961 663.259033,143.714432   C675.976318,145.246658 683.296875,152.194611 684.417908,164.851974   C686.984253,193.826965 685.569031,222.666138 681.463806,251.442719   C676.249390,287.994049 666.276550,323.027435 648.877808,355.728973   C626.575378,397.647125 595.900024,432.239685 556.971497,460.011322  z"/>
  <path d="M534.901855,101.149872   C542.294922,112.870049 549.494385,124.283028 556.676819,135.706772   C557.474121,136.974915 558.219727,138.280533 558.911072,139.609451   C561.100769,143.818604 562.322571,148.059387 558.618225,152.100433   C554.981323,156.067917 550.645386,155.557068 546.189941,153.815247   C541.244568,151.881851 536.309631,149.921432 531.507751,148.027084   C531.010742,148.432785 530.553894,148.629486 530.550598,148.833557   C530.306580,163.786407 528.891846,178.788254 531.351135,193.657806   C532.793396,202.378250 536.906128,210.060211 542.736206,216.671768   C559.965515,236.210526 568.442322,259.046692 567.188965,284.956146   C565.709595,315.537140 552.723022,340.625916 528.642273,359.776184   C527.733154,360.499146 526.742065,361.136932 525.727661,361.704559   C524.671997,362.295227 523.479736,362.577148 522.467224,361.689331   C521.445251,360.793182 521.557739,359.529327 522.055298,358.450470   C523.030396,356.336182 524.134521,354.278778 525.242676,352.228912   C543.278381,318.866302 544.254700,285.291656 526.484924,251.495193   C522.110657,243.175827 515.596191,236.368408 510.243500,228.737061   C499.559662,213.505051 496.302979,196.207535 495.984406,178.105316   C495.811951,168.305511 495.953674,158.500183 495.953674,148.276367   C490.691162,148.931778 486.685944,151.344818 482.402740,152.894684   C477.187195,154.781891 471.761719,157.265427 467.323547,151.713409   C463.180481,146.530579 465.906769,141.536789 468.783783,136.960403   C479.954346,119.191689 491.123260,101.418732 502.578827,83.833687   C508.593689,74.600433 517.754211,74.842987 523.873901,84.040398   C527.565125,89.588005 531.098816,95.240479 534.901855,101.149872  z"/>
</svg>
